<svg xmlns="http://www.w3.org/2000/svg" width="512" height="512" viewBox="0 0 512 512">
  <rect width="512" height="512" rx="80" fill="#4CAF50"/>
  <g fill="white">
    <!-- ジョギングしている人のシルエット -->
    <circle cx="180" cy="120" r="30"/>
    <path d="M160 160 L160 280 L140 380 L160 380 L180 300 L200 380 L220 380 L200 280 L200 180 Z"/>
    <path d="M200 180 L240 200 L230 220 L190 200 Z"/>
    <path d="M160 200 L120 220 L130 240 L170 220 Z"/>
    
    <!-- 地図のピン -->
    <path d="M320 180 C320 160 335 140 356 140 C377 140 392 160 392 180 C392 200 356 240 356 240 S320 200 320 180 Z"/>
    <circle cx="356" cy="180" r="12"/>
    
    <!-- ルートライン -->
    <path d="M100 320 Q200 300 300 320 Q400 340 450 360" stroke="white" stroke-width="6" fill="none" stroke-linecap="round"/>
    <circle cx="100" cy="320" r="8"/>
    <circle cx="450" cy="360" r="8"/>
  </g>
</svg>